<?xml version="1.0" encoding="utf-8"?>
<!-- Generator: Adobe Illustrator 22.0.1, SVG Export Plug-In . SVG Version: 6.00 Build 0)  -->
<svg version="1.1" id="Layer_1" xmlns="http://www.w3.org/2000/svg" xmlns:xlink="http://www.w3.org/1999/xlink" x="0px" y="0px"
	 viewBox="0 0 3000 313" style="enable-background:new 0 0 3000 313;" xml:space="preserve">
<style type="text/css">
	.st0{fill:#FFFFFF;}
</style>
<g transform="scale(11.833983313197521) translate(10, 10)">
	<g id="main_text" transform="translate(-1.919999122619629, -14.51199722290039)" xmlns:name="mainText_mainfill">
		<path class="st0" d="M15.2,10.3H5.9v19.9H0.9V10.3h-9V5.3h23.3V10.3L15.2,10.3z M46.4,5.3L36.1,20.2v10h-4.9v-10L20.8,5.3H27
			l6.6,9.8l6.8-9.8L46.4,5.3L46.4,5.3z M60.7,10.3v7.4c2.2-1.2,4.9-1.4,7.8-1.4h2.2c2.4,0,3.9-0.4,3.9-3.1c0-2.4-1.9-2.9-3.9-2.9
			H60.7z M60.7,30.2h-4.9V5.3h15.8c4.8,0,8.1,3.1,8.1,7.9c0,4.9-3.4,8-9,8h-2.2c-4.6,0-5.7,0.3-7.8,1.4L60.7,30.2L60.7,30.2z
			 M95.1,21.3v3.9h15.6v5H90.3V5.3h19.6v4.9H95.1v6c2.2-1.2,4.9-1.4,7.8-1.4h3.6v4.9h-3.6C98.4,19.8,97.3,20.1,95.1,21.3z
			 M134.5,24.3l2.5-4.4c1.9,0.2,3.3,1.2,5.2,2.7c1.2-1.3,1.9-3,1.9-5c0-5.6-5.1-8-9.8-8c-4.8,0-9.5,2.5-9.5,8.2s4.8,8.2,9.6,8.2
			c1.1,0,2.2-0.1,3.2-0.5c0,0-0.1,0-0.1,0C136.5,24.9,135.6,24.4,134.5,24.3L134.5,24.3z M149,17.5c0,3.2-1,5.9-2.6,8
			c0.8,0.4,1.7,0.8,2.6,0.8l-2.5,4.3c-1.6-0.1-2.8-0.8-4.1-1.7c-2.4,1.3-5.2,2.1-8.1,2.1c-7.5,0-14.6-4.9-14.6-13.3
			c0-8.4,7.2-13.2,14.7-13.2C141.8,4.5,149,8.9,149,17.5z M174.4,21.9h0.7l-4.8-9.2l-5.9,11.4C165.9,23.3,169.2,21.9,174.4,21.9
			L174.4,21.9z M167.6,7.9L166,4.8h5.3l13.4,25.4h-5.4l-2-3.7h-3c-6.1,0-12.5,2.4-13.3,3.5l-0.1,0.3h-5.2L167.6,7.9z M213.4,7.6
			l-3.3,3.8c-1.9-1.6-4.5-2.2-7.4-2.2c-2.4,0-5,1.2-5,2.7c0,1.5,0.6,2.5,5.4,2.5c10.6,0,12.2,3.6,12.2,7.6c0,6-5.5,8.8-12.6,8.8
			c-4.3,0-8.5-2.1-11.3-5.3l3.6-3.6c1.5,1.6,3.3,4.1,7.7,4.1c4.5,0,7.7-1.4,7.7-4c0-2.3-2.5-2.7-7.7-2.7c-6,0-10.3-2-10.3-7.4
			c0-4.5,4.8-7.5,10.3-7.5C206.4,4.5,209.8,5.1,213.4,7.6L213.4,7.6z M245.4,10.3h-9.4v19.9h-4.9V10.3h-9V5.3h23.3V10.3L245.4,10.3z
			"/>
	</g>
</g>
</svg>
